<svg xmlns="http://www.w3.org/2000/svg" xmlns:xlink="http://www.w3.org/1999/xlink" viewBox="0 0 32.09 32"><defs><style>.cls-1{fill:#222;}.cls-2{fill:url(#linear-gradient);}.cls-3{fill:url(#linear-gradient-2);}</style><linearGradient id="linear-gradient" x1="6.92" y1="18.18" x2="19.5" y2="18.18" gradientUnits="userSpaceOnUse"><stop offset="0" stop-color="#b52"/><stop offset="1" stop-color="#fc6533"/><stop offset="1" stop-color="#ff9265"/></linearGradient><linearGradient id="linear-gradient-2" x1="16.71" y1="18.18" x2="32.09" y2="18.18" gradientUnits="userSpaceOnUse"><stop offset="0" stop-color="#b52"/><stop offset="0.2" stop-color="#fc6533"/><stop offset="1" stop-color="#f96"/></linearGradient></defs><title>logo</title><g id="Layer_2" data-name="Layer 2"><g id="Layer_1-2" data-name="Layer 1"><path class="cls-1" d="M6.92,7V26.41a5.57,5.57,0,0,1-.85,3A5.58,5.58,0,0,1,1.32,32,5.47,5.47,0,0,1,0,31.84,4.83,4.83,0,0,0,1.32,28.5V7Z"/><path class="cls-2" d="M19.5,16.08V29.37H13.91V16.08a3.5,3.5,0,1,0-7,0V7.69a9.07,9.07,0,0,1,9.79,1.84A9.06,9.06,0,0,1,19.5,16.08Z"/><path class="cls-3" d="M32.09,16.08V29.37H26.5V16.08a3.5,3.5,0,0,0-7,0,9.06,9.06,0,0,0-2.8-6.55A9.08,9.08,0,0,1,26.5,7.69,9.1,9.1,0,0,1,32.09,16.08Z"/><circle class="cls-1" cx="4.12" cy="2.8" r="2.8"/></g></g></svg>