<svg xmlns="http://www.w3.org/2000/svg" xmlns:xlink="http://www.w3.org/1999/xlink" viewBox="0 0 162.16 32"><defs><style>.cls-1{fill:none;}.cls-2{fill:#fff;}.cls-3{clip-path:url(#clip-path);}.cls-4{fill:url(#linear-gradient);}</style><clipPath id="clip-path" transform="translate(0 0)"><path class="cls-1" d="M130,12.59h2.8V7H130V0H124.4V26.41A5.58,5.58,0,0,0,130,32a5.47,5.47,0,0,0,1.32-.16A4.87,4.87,0,0,1,130,28.5ZM156.57,0V29.37h5.59V0ZM93.63,7.65a9.07,9.07,0,0,0-9.79,1.84A9.08,9.08,0,0,0,74,7.65V7H68.45V29.33H74V16a3.5,3.5,0,0,1,7,0V29.33h5.59V16a3.5,3.5,0,0,1,7,0V29.33h5.59V16A9.09,9.09,0,0,0,93.63,7.65ZM111.81,7A11.19,11.19,0,1,0,123,18.14,11.19,11.19,0,0,0,111.81,7Zm0,17.48a6.29,6.29,0,1,1,6.29-6.29A6.29,6.29,0,0,1,111.81,24.44ZM144,7a11.19,11.19,0,1,0,11.19,11.19A11.19,11.19,0,0,0,144,7Zm0,17.48a6.29,6.29,0,1,1,6.29-6.29A6.29,6.29,0,0,1,144,24.44Z"/></clipPath><linearGradient id="linear-gradient" x1="68.45" y1="16" x2="162.16" y2="16" gradientUnits="userSpaceOnUse"><stop offset="0" stop-color="#b52"/><stop offset="0.5" stop-color="#f63"/><stop offset="1" stop-color="#f96"/></linearGradient></defs><title>logo_banner_light</title><g id="Layer_2" data-name="Layer 2"><g id="Layer_1-2" data-name="Layer 1"><path class="cls-2" d="M6.92,7V26.41a5.56,5.56,0,0,1-.85,3A5.6,5.6,0,0,1,1.32,32,5.47,5.47,0,0,1,0,31.84,4.83,4.83,0,0,0,1.32,28.5V7Z" transform="translate(0 0)"/><circle class="cls-2" cx="4.12" cy="2.8" r="2.8"/><rect class="cls-2" x="27.9" y="0.05" width="5.59" height="29.37" transform="translate(61.38 29.46) rotate(180)"/><rect class="cls-2" x="34.89" y="6.95" width="5.59" height="22.38" transform="translate(75.37 36.28) rotate(180)"/><circle class="cls-2" cx="37.69" cy="2.84" r="2.8"/><path class="cls-2" d="M26.5,7V20.28a9.09,9.09,0,0,1-5.59,8.39,9.09,9.09,0,0,1-7,0,9.09,9.09,0,0,1-5.59-8.39V7h5.59V20.28a3.5,3.5,0,0,0,7,0V7Z" transform="translate(0 0)"/><path class="cls-2" d="M53.07,7A11.19,11.19,0,1,0,64.26,18.14,11.19,11.19,0,0,0,53.07,7Zm0,17.48a6.29,6.29,0,1,1,6.29-6.29A6.29,6.29,0,0,1,53.07,24.44Z" transform="translate(0 0)"/><g class="cls-3"><rect class="cls-4" x="68.45" width="93.71" height="32"/></g></g></g></svg>